<svg xmlns="http://www.w3.org/2000/svg" xmlns:xlink="http://www.w3.org/1999/xlink">

<symbol id="bluesky" fill-rule="evenodd" clip-rule="evenodd" stroke-linejoin="round" stroke-miterlimit="1.414" viewBox="0 0 16 16"><path d="m 3.46821,1.9044433 c 1.83436,1.37712 3.80743,4.16936 4.53184,5.66783 0.72446,-1.49836 2.69742,-4.29073 4.53183,-5.66783 C 13.85546,0.91076333 16,0.14191333 16,2.5884433 c 0,0.4886 -0.28014,4.10453 -0.44444,4.69156 -0.57111,2.04092 -2.65223,2.56147 -4.50342,2.24641 3.23584,0.5507297 4.05901,2.3749397 2.28128,4.1991497 -3.37625,3.46453 -4.85266,-0.86927 -5.23114,-1.97974 -0.0693,-0.20358 -0.1018,-0.29881 -0.10228,-0.21783 -4.8e-4,-0.081 -0.0329,0.0143 -0.10228,0.21783 -0.37832,1.11047 -1.85469,5.44438 -5.23114,1.97974 C 0.88882,11.901353 1.71196,10.077033 4.94786,9.5264133 3.09662,9.8414733 1.01547,9.3209233 0.44444,7.2800033 0.28013,6.6929133 0,3.0769933 0,2.5884433 0,0.14191333 2.14459,0.91076333 3.46812,1.9044433 Z"/>
</symbol>
<symbol id="instagram" fill-rule="evenodd" clip-rule="evenodd" stroke-linejoin="round" stroke-miterlimit="1.414" viewBox="0 0 16 16"><path d="M8 0C5.827 0 5.555.01 4.702.048 3.85.088 3.27.222 2.76.42c-.526.204-.973.478-1.417.923-.445.444-.72.89-.923 1.417-.198.51-.333 1.09-.372 1.942C.008 5.555 0 5.827 0 8s.01 2.445.048 3.298c.04.852.174 1.433.372 1.942.204.526.478.973.923 1.417.444.445.89.72 1.417.923.51.198 1.09.333 1.942.372.853.04 1.125.048 3.298.048s2.445-.01 3.298-.048c.852-.04 1.433-.174 1.942-.372.526-.204.973-.478 1.417-.923.445-.444.72-.89.923-1.417.198-.51.333-1.09.372-1.942.04-.853.048-1.125.048-3.298s-.01-2.445-.048-3.298c-.04-.852-.174-1.433-.372-1.942-.204-.526-.478-.973-.923-1.417-.444-.445-.89-.72-1.417-.923-.51-.198-1.09-.333-1.942-.372C10.445.008 10.173 0 8 0zm0 1.44c2.136 0 2.39.01 3.233.048.78.036 1.203.166 1.485.276.374.145.64.318.92.598.28.28.453.546.598.92.11.282.24.705.276 1.485.038.844.047 1.097.047 3.233s-.01 2.39-.05 3.233c-.04.78-.17 1.203-.28 1.485-.15.374-.32.64-.6.92-.28.28-.55.453-.92.598-.28.11-.71.24-1.49.276-.85.038-1.1.047-3.24.047s-2.39-.01-3.24-.05c-.78-.04-1.21-.17-1.49-.28-.38-.15-.64-.32-.92-.6-.28-.28-.46-.55-.6-.92-.11-.28-.24-.71-.28-1.49-.03-.84-.04-1.1-.04-3.23s.01-2.39.04-3.24c.04-.78.17-1.21.28-1.49.14-.38.32-.64.6-.92.28-.28.54-.46.92-.6.28-.11.7-.24 1.48-.28.85-.03 1.1-.04 3.24-.04zm0 2.452c-2.27 0-4.108 1.84-4.108 4.108 0 2.27 1.84 4.108 4.108 4.108 2.27 0 4.108-1.84 4.108-4.108 0-2.27-1.84-4.108-4.108-4.108zm0 6.775c-1.473 0-2.667-1.194-2.667-2.667 0-1.473 1.194-2.667 2.667-2.667 1.473 0 2.667 1.194 2.667 2.667 0 1.473-1.194 2.667-2.667 2.667zm5.23-6.937c0 .53-.43.96-.96.96s-.96-.43-.96-.96.43-.96.96-.96.96.43.96.96z"/>
</symbol>
<symbol id="storygraph" fill-rule="evenodd" clip-rule="evenodd" stroke-linejoin="round" stroke-miterlimit="1.414" viewBox="0 0 16 16"><g id="surface1">
<path style=" stroke:none;fill-rule:nonzero;fill-opacity:1;" d="M 11.175781 0.640625 C 10.71875 0.78125 10.117188 0.957031 9.84375 1.039062 C 9.570312 1.121094 9.316406 1.210938 9.28125 1.238281 C 9.195312 1.300781 9.121094 1.453125 9.121094 1.558594 C 9.121094 1.648438 12.433594 12.929688 12.496094 13.050781 C 12.519531 13.09375 12.574219 13.152344 12.625 13.183594 C 12.796875 13.296875 12.796875 13.296875 14.261719 12.867188 C 15 12.652344 15.621094 12.460938 15.648438 12.445312 C 15.675781 12.425781 15.726562 12.375 15.761719 12.328125 C 15.898438 12.152344 16.011719 12.582031 14.171875 6.332031 C 13.253906 3.210938 12.488281 0.628906 12.464844 0.59375 C 12.449219 0.554688 12.390625 0.5 12.339844 0.464844 C 12.167969 0.351562 12.109375 0.359375 11.175781 0.640625 Z M 11.175781 0.640625 "/>
<path style=" stroke:none;fill-rule:nonzero;fill-opacity:1;" d="M 0.589844 0.6875 C 0.492188 0.714844 0.398438 0.792969 0.339844 0.886719 L 0.285156 0.972656 L 0.285156 12.949219 L 0.347656 13.050781 C 0.382812 13.113281 0.445312 13.175781 0.5 13.207031 L 0.589844 13.257812 L 3.511719 13.257812 L 3.605469 13.195312 C 3.65625 13.164062 3.722656 13.09375 3.753906 13.042969 L 3.804688 12.949219 L 3.804688 0.996094 L 3.757812 0.902344 C 3.734375 0.851562 3.667969 0.78125 3.613281 0.742188 L 3.515625 0.675781 L 2.085938 0.667969 C 1.296875 0.667969 0.625 0.675781 0.589844 0.6875 Z M 0.589844 0.6875 "/>
<path style=" stroke:none;fill-rule:nonzero;fill-opacity:1;" d="M 5.09375 0.6875 C 4.996094 0.714844 4.902344 0.792969 4.839844 0.886719 L 4.789062 0.972656 L 4.789062 12.949219 L 4.851562 13.050781 C 4.882812 13.113281 4.945312 13.175781 5 13.207031 L 5.09375 13.257812 L 6.546875 13.257812 C 7.773438 13.257812 8.011719 13.253906 8.066406 13.226562 C 8.152344 13.179688 8.269531 13.042969 8.289062 12.964844 C 8.300781 12.929688 8.308594 10.222656 8.308594 6.949219 L 8.308594 0.996094 L 8.261719 0.902344 C 8.234375 0.851562 8.167969 0.78125 8.117188 0.742188 L 8.019531 0.675781 L 6.585938 0.667969 C 5.800781 0.667969 5.125 0.675781 5.09375 0.6875 Z M 5.09375 0.6875 "/>
<path style=" stroke:none;fill-rule:nonzero;fill-opacity:1;" d="M 0.359375 13.964844 L 0.285156 14.03125 L 0.277344 14.460938 C 0.269531 14.933594 0.285156 15.03125 0.382812 15.105469 L 0.441406 15.152344 L 8.046875 15.152344 C 13.898438 15.152344 15.667969 15.148438 15.714844 15.125 C 15.828125 15.078125 15.839844 15.015625 15.839844 14.503906 L 15.839844 14.03125 L 15.707031 13.898438 L 0.433594 13.898438 Z M 0.359375 13.964844 "/>
</g>
</symbol>
<symbol id="rss" fill-rule="evenodd" clip-rule="evenodd" stroke-linejoin="round" stroke-miterlimit="1.414" viewBox="0 0 16 16"><path d="M12.8 16C12.8 8.978 7.022 3.2 0 3.2V0c8.777 0 16 7.223 16 16h-3.2zM2.194 11.61c1.21 0 2.195.985 2.195 2.196 0 1.21-.99 2.194-2.2 2.194C.98 16 0 15.017 0 13.806c0-1.21.983-2.195 2.194-2.195zM10.606 16h-3.11c0-4.113-3.383-7.497-7.496-7.497v-3.11c5.818 0 10.606 4.79 10.606 10.607z"/>
</symbol>
</svg>
